<svg xmlns="http://www.w3.org/2000/svg" viewBox="0 0 200 200" fill="none">
  <!-- Background gradient circle -->
  <defs>
    <linearGradient id="bgGradient" x1="0%" y1="0%" x2="100%" y2="100%">
      <stop offset="0%" style="stop-color:#9333ea;stop-opacity:1" />
      <stop offset="100%" style="stop-color:#ec4899;stop-opacity:1" />
    </linearGradient>
    <linearGradient id="noteGradient" x1="0%" y1="0%" x2="100%" y2="100%">
      <stop offset="0%" style="stop-color:#ffffff;stop-opacity:0.95" />
      <stop offset="100%" style="stop-color:#f0abfc;stop-opacity:0.9" />
    </linearGradient>
  </defs>

  <!-- Background -->
  <circle cx="100" cy="100" r="95" fill="url(#bgGradient)"/>

  <!-- Markdown hash symbol (#) -->
  <g transform="translate(35, 50)" fill="url(#noteGradient)">
    <!-- Vertical lines -->
    <rect x="12" y="0" width="8" height="60" rx="2"/>
    <rect x="35" y="0" width="8" height="60" rx="2"/>
    <!-- Horizontal lines -->
    <rect x="0" y="18" width="55" height="8" rx="2"/>
    <rect x="0" y="34" width="55" height="8" rx="2"/>
  </g>

  <!-- Musical note -->
  <g transform="translate(110, 65)" fill="url(#noteGradient)">
    <!-- Note stem -->
    <rect x="22" y="0" width="8" height="55" rx="2"/>
    <!-- Note flag -->
    <path d="M30 0 Q50 8 50 25 Q45 22 30 18 Z"/>
    <path d="M30 10 Q48 18 48 32 Q43 29 30 25 Z"/>
    <!-- Note head (circle) -->
    <ellipse cx="15" cy="55" rx="15" ry="12" transform="rotate(-20 15 55)"/>
  </g>

  <!-- Grid pattern at bottom (sequencer reference) -->
  <g transform="translate(50, 135)" fill="white" opacity="0.6">
    <rect x="0" y="0" width="12" height="12" rx="2"/>
    <rect x="18" y="0" width="12" height="12" rx="2"/>
    <rect x="36" y="0" width="12" height="12" rx="2"/>
    <rect x="54" y="0" width="12" height="12" rx="2"/>
    <rect x="72" y="0" width="12" height="12" rx="2"/>
    <rect x="90" y="0" width="12" height="12" rx="2"/>
  </g>
</svg>
